<?xml version="1.0" encoding="UTF-8"?>
<svg xmlns="http://www.w3.org/2000/svg" viewBox="0 0 220 64" width="220" height="64">
  <defs>
    <linearGradient id="grad" x1="0%" y1="0%" x2="100%" y2="100%">
      <stop offset="0%" stop-color="#00c758"/>
      <stop offset="100%" stop-color="#00bb7f"/>
    </linearGradient>
  </defs>
  <!-- Icon -->
  <g transform="translate(4, 4)">
    <rect x="0" y="0" width="40" height="36" rx="10" ry="10" fill="#0d0d0f" stroke="url(#grad)" stroke-width="2.5"/>
    <line x1="10" y1="0" x2="10" y2="-6" stroke="#00c758" stroke-width="2.5" stroke-linecap="round"/>
    <line x1="30" y1="0" x2="30" y2="-6" stroke="#00c758" stroke-width="2.5" stroke-linecap="round"/>
    <circle cx="10" cy="-6" r="2.5" fill="#00c758"/>
    <circle cx="30" cy="-6" r="2.5" fill="#00c758"/>
    <circle cx="12" cy="16" r="5" fill="#00c758"/>
    <circle cx="28" cy="16" r="5" fill="#00c758"/>
    <circle cx="13" cy="15" r="1.8" fill="#0d0d0f"/>
    <circle cx="29" cy="15" r="1.8" fill="#0d0d0f"/>
    <path d="M 14 24 Q 20 29 26 24" stroke="#00c758" stroke-width="2" fill="none" stroke-linecap="round"/>
    <rect x="8" y="40" width="24" height="12" rx="6" ry="6" fill="#0d0d0f" stroke="url(#grad)" stroke-width="2.5"/>
    <rect x="14" y="44" width="12" height="4" rx="2" fill="#00c758" opacity="0.9"/>
  </g>
  <!-- Text: Broki -->
  <text x="56" y="40" font-family="system-ui, -apple-system, sans-serif" font-size="32" font-weight="800" fill="#ffffff" letter-spacing="-0.02em">Broki</text>
  <!-- Text: AI -->
  <text x="156" y="40" font-family="system-ui, -apple-system, sans-serif" font-size="32" font-weight="800" fill="url(#grad)" letter-spacing="-0.02em">AI</text>
</svg>
